<svg version="1.1" id="Layer_1" xmlns="http://www.w3.org/2000/svg" xmlns:xlink="http://www.w3.org/1999/xlink" x="0px" y="0px"
	 width="100%" viewBox="0 0 500 500" enable-background="new 0 0 500 500" xml:space="preserve">
<path fill="#FFFFFF" opacity="1.000000" stroke="none" 
	d="
M227.000000,501.000000 
	C152.666687,501.000000 78.833313,500.969666 5.000218,501.096283 
	C1.575850,501.102142 0.903036,500.423798 0.905301,497.000000 
	C1.013779,333.000092 1.013772,169.000122 0.905333,5.000235 
	C0.903070,1.576908 1.575830,0.903023 4.999888,0.905288 
	C168.999771,1.013774 332.999725,1.013761 496.999634,0.905352 
	C500.422668,0.903090 501.096985,1.575451 501.094727,4.999769 
	C500.986206,168.999664 500.986237,332.999634 501.094604,496.999542 
	C501.096893,500.422333 500.425354,501.100433 497.000305,501.095825 
	C407.166992,500.974945 317.333466,501.000000 227.000000,501.000000 
z"/>
<path fill="#FF5C5C" opacity="1.000000" stroke="none" 
	d="
M210.863190,268.353821 
	C233.731201,263.102325 255.010666,254.961853 273.538422,240.535828 
	C295.652069,223.317734 309.244720,200.523239 317.397980,174.083481 
	C318.144318,171.663284 317.344299,170.867828 315.365356,170.029099 
	C294.841522,161.330536 274.322845,152.618958 253.857330,143.784561 
	C250.715347,142.428238 250.483963,143.868240 250.548645,146.301697 
	C250.677582,151.152130 249.942154,155.929184 249.239151,160.707657 
	C248.902222,162.997864 248.387955,164.861557 245.319977,164.704788 
	C242.943848,164.583374 240.918701,164.645935 241.203125,161.387634 
	C241.302551,160.248856 240.440018,159.594086 239.476273,159.187607 
	C235.404663,157.470276 231.323196,155.776291 227.099991,154.013092 
	C226.405441,156.541336 227.777008,158.350754 227.695496,160.302475 
	C227.634033,161.773193 229.127182,164.049606 226.577942,164.411682 
	C224.353989,164.727570 221.322403,165.929306 220.073334,162.615509 
	C216.335831,152.699921 212.724945,142.736618 208.716064,131.844940 
	C219.513474,136.396500 229.516891,140.613358 240.330750,145.171860 
	C239.591400,138.385498 238.920074,132.223465 238.248184,126.056160 
	C240.278854,125.138535 241.616425,126.495255 243.008209,127.084175 
	C271.503448,139.141602 299.948761,151.317398 328.475281,163.299957 
	C331.728271,164.666367 332.579926,165.897751 331.450531,169.481949 
	C324.521576,191.472275 315.004883,212.037064 299.548981,229.456329 
	C277.593170,254.201172 249.401672,265.994415 217.026749,269.033264 
	C215.204178,269.204346 213.371033,269.262970 211.052795,269.318878 
	C210.600449,269.049530 210.638107,268.835236 210.863190,268.353821 
z"/>
<path fill="#FF5F5F" opacity="1.000000" stroke="none" 
	d="
M212.985580,262.410675 
	C224.722092,252.192627 235.047073,241.249298 241.464340,227.098068 
	C248.017212,212.647781 250.202332,197.544632 248.697220,181.794113 
	C248.423431,178.928864 247.545410,177.642212 244.551712,177.655853 
	C230.395172,177.720352 216.237610,177.722656 202.081497,177.610580 
	C198.613113,177.583130 199.274139,179.119705 200.107986,181.286713 
	C203.866699,191.055038 205.014313,201.274826 205.238373,212.159927 
	C203.154022,210.193878 203.422455,207.798996 202.742783,205.797653 
	C201.993469,203.591278 201.326340,201.356201 200.544449,199.161758 
	C197.324280,190.124313 197.313248,190.128250 186.892212,191.557495 
	C191.151581,197.561584 194.072586,203.952728 195.161133,211.191971 
	C187.812302,200.865814 179.121780,191.756836 169.040085,181.977219 
	C176.575363,181.977219 182.650009,181.895798 188.720810,182.012848 
	C191.598221,182.068314 192.782852,181.741272 191.053070,178.521362 
	C186.495895,170.038391 186.608810,169.977631 196.372192,169.977676 
	C214.693436,169.977753 233.014664,169.980667 251.335907,169.974762 
	C253.643280,169.974014 255.919312,169.495163 256.245636,173.102951 
	C258.173523,194.417450 256.538757,215.043793 245.179672,233.920395 
	C237.710037,246.333450 227.384979,255.786697 214.610367,263.139404 
	C213.721649,263.450775 213.280396,263.302917 212.985580,262.410675 
z"/>
<path fill="#FF6060" opacity="1.000000" stroke="none" 
	d="
M274.982086,211.656677 
	C270.665405,211.493423 267.032196,210.458511 263.655029,208.477325 
	C261.765228,207.368729 260.537140,206.016022 261.178131,203.636459 
	C261.589661,202.108810 260.700439,199.485062 262.507416,199.274689 
	C264.543396,199.037643 267.480835,199.612228 268.081024,202.250153 
	C268.547424,204.299881 269.158997,204.505020 270.602203,203.492569 
	C271.983643,202.523422 273.086090,203.309464 274.335388,203.707108 
	C277.192383,204.616486 280.007141,204.955688 281.735962,201.733963 
	C283.525330,198.399460 283.995605,195.230011 280.827087,192.205124 
	C279.420929,190.862701 276.473999,190.209885 277.466339,187.311371 
	C278.508698,184.266800 279.274750,180.433228 284.039307,183.576523 
	C285.239227,184.368134 286.951538,185.014175 287.796722,182.968658 
	C288.733093,180.702377 286.538422,180.714996 285.397949,180.047043 
	C283.819122,179.122314 281.308929,179.317795 281.530731,176.353607 
	C281.583252,175.651077 280.454803,174.801453 279.717377,175.712906 
	C278.364868,177.384659 277.015045,176.532852 275.723877,175.929733 
	C272.468994,174.409317 269.870422,174.953934 268.144043,178.207764 
	C266.420166,181.456802 266.197662,184.543243 269.427338,187.155945 
	C270.578796,188.087448 272.139801,189.043503 272.513214,190.288452 
	C273.161804,192.450882 271.645660,194.432861 270.587677,196.258224 
	C269.717346,197.759796 268.230469,197.114441 267.055969,196.433334 
	C265.195709,195.354553 262.048523,195.642975 262.161987,192.351562 
	C262.368958,186.347748 262.257507,180.365387 261.480743,174.404572 
	C261.164551,171.978104 263.064850,171.283035 264.645935,170.485458 
	C272.640778,166.452484 280.526703,166.850891 287.747223,172.069366 
	C294.991608,177.305145 298.014038,184.749786 296.372559,193.550430 
	C294.699738,202.518906 289.074127,208.290863 280.322632,210.891373 
	C278.745728,211.359955 277.045105,211.412277 274.982086,211.656677 
z"/>
<path fill="#FF5D5D" opacity="1.000000" stroke="none" 
	d="
M135.191772,291.155670 
	C135.256714,302.552765 135.292068,313.548828 135.289597,324.544861 
	C135.288986,327.231232 135.492188,330.481567 131.635422,330.353058 
	C127.852219,330.227081 128.226212,326.962158 128.202469,324.300873 
	C128.172729,320.968842 128.135254,317.635529 128.197708,314.304565 
	C128.237061,312.206360 127.364456,311.203308 125.240494,311.368378 
	C125.075050,311.381287 124.906952,311.373779 124.740913,311.363037 
	C111.156105,310.481598 111.156021,310.481506 111.079788,324.075104 
	C111.076050,324.741547 111.044502,325.409729 111.080284,326.074158 
	C111.218987,328.649323 110.167328,330.441010 107.470924,330.390717 
	C105.011246,330.344910 104.142784,328.495056 104.135048,326.240204 
	C104.114471,320.242218 104.117607,314.244110 104.115891,308.246063 
	C104.114365,302.914398 104.122879,297.582733 104.119110,292.251068 
	C104.117401,289.836975 104.804100,287.765106 107.593910,287.720093 
	C110.395912,287.674896 111.181030,289.642120 111.082054,292.129700 
	C111.042336,293.127747 110.965942,294.144104 111.099922,295.125702 
	C111.555367,298.462555 109.312111,303.651947 112.307632,304.773956 
	C116.548416,306.362366 121.801048,305.368713 126.615356,305.247040 
	C128.499741,305.199402 128.150665,303.381409 128.172348,302.126770 
	C128.229935,298.795410 128.173737,295.462219 128.213776,292.130371 
	C128.236893,290.206940 128.608429,288.352814 130.838181,287.851166 
	C133.191483,287.321808 134.704178,288.312805 135.191772,291.155670 
z"/>
<path fill="#FF5E5E" opacity="1.000000" stroke="none" 
	d="
M179.408691,325.366760 
	C178.822861,326.799072 178.513138,327.952118 177.914001,328.927399 
	C177.057800,330.321106 175.811447,331.005981 174.097565,330.291046 
	C172.212204,329.504669 171.624619,328.067688 172.223740,326.250122 
	C176.076523,314.561890 179.955994,302.882263 183.897354,291.223663 
	C184.644073,289.014862 186.226151,287.567749 188.730591,287.573090 
	C191.256912,287.578461 192.724091,289.078125 193.471558,291.308228 
	C197.329102,302.817413 201.162384,314.334778 204.960495,325.863647 
	C205.589981,327.774414 205.453949,329.555206 203.161179,330.345093 
	C200.865631,331.135925 199.813507,329.623016 198.882416,327.942566 
	C198.721222,327.651611 198.582657,327.347290 198.446701,327.043304 
	C197.306671,324.494507 197.607071,320.281342 195.307861,319.539612 
	C191.672852,318.366974 187.425507,318.919739 183.445969,319.036743 
	C179.537613,319.151611 180.839539,322.994720 179.408691,325.366760 
z"/>
<path fill="#FF5C5C" opacity="1.000000" stroke="none" 
	d="
M325.733337,287.982117 
	C333.550659,290.779724 336.294891,295.801514 334.937256,304.139923 
	C333.930603,310.322327 329.315460,313.825714 321.938385,314.007446 
	C315.009003,314.178131 315.012787,314.178131 315.006165,321.232269 
	C315.004272,323.226624 315.038879,325.224365 314.936890,327.214417 
	C314.836060,329.182709 313.567841,330.284149 311.727509,330.387543 
	C309.589172,330.507599 308.142029,329.278015 308.129822,327.128113 
	C308.062775,315.326965 308.040955,303.524445 308.165192,291.724091 
	C308.194672,288.921875 310.288910,287.728943 312.895355,287.583496 
	C317.045502,287.351929 321.200287,287.239685 325.733337,287.982117 
z"/>
<path fill="#FF5C5C" opacity="1.000000" stroke="none" 
	d="
M243.035522,305.007141 
	C243.036102,301.022827 243.193039,297.528107 242.999146,294.052948 
	C242.734100,289.302307 245.026138,287.361145 249.532684,287.454346 
	C252.187027,287.509247 254.855301,287.361359 257.494812,287.578278 
	C267.668793,288.414459 272.672028,296.071930 269.534302,305.861847 
	C267.875885,311.036163 263.666931,313.811249 257.182037,314.006042 
	C250.008942,314.221466 250.009644,314.221466 250.008087,321.467010 
	C250.007736,323.126984 249.976837,324.787323 250.002579,326.446838 
	C250.039749,328.844391 248.848526,330.387634 246.514114,330.401581 
	C244.126556,330.415833 243.052551,328.759705 243.051208,326.421356 
	C243.047211,319.449371 243.040909,312.477417 243.035522,305.007141 
z"/>
<path fill="#FF6060" opacity="1.000000" stroke="none" 
	d="
M236.724579,190.258118 
	C241.556229,196.389633 242.270782,202.574280 239.008850,208.044479 
	C235.825928,213.382172 229.891022,216.126221 223.696075,215.124466 
	C217.733978,214.160355 212.906708,209.453598 211.610474,203.340561 
	C210.363800,197.461304 213.193176,191.185257 218.528610,187.994980 
	C224.339035,184.520706 230.389725,185.196106 236.724579,190.258118 
z"/>
<path fill="#FF5F5F" opacity="1.000000" stroke="none" 
	d="
M382.317017,322.759338 
	C384.413513,311.655884 377.661438,304.127411 373.078094,295.801575 
	C371.776733,293.437531 368.278137,290.495209 372.180695,288.163544 
	C376.006134,285.877960 377.057312,290.162018 378.537415,292.521820 
	C380.566956,295.757568 382.430267,299.100220 384.290314,302.438599 
	C385.481689,304.576874 386.469635,304.572937 387.686493,302.447479 
	C389.998352,298.409363 392.418396,294.433289 394.764587,290.414612 
	C395.949127,288.385742 397.444946,286.646881 399.927582,288.046997 
	C402.561249,289.532227 401.421143,291.698151 400.281311,293.635590 
	C398.933075,295.927155 397.702637,298.311249 396.138153,300.448059 
	C391.165649,307.239685 388.323273,314.518829 389.426483,323.173798 
	C389.788635,326.015106 390.608978,330.420776 385.709656,330.253540 
	C381.304230,330.103088 382.574585,326.023773 382.317017,322.759338 
z"/>
<path fill="#FF6464" opacity="1.000000" stroke="none" 
	d="
M310.885803,373.277863 
	C307.664764,375.270264 306.071808,373.643951 304.852844,371.091339 
	C302.567352,366.305450 300.264801,361.527679 296.994141,356.768036 
	C296.994141,361.193451 297.046692,365.619843 296.967163,370.043854 
	C296.937103,371.716309 297.645935,374.254669 294.766785,374.068176 
	C292.408875,373.915405 293.018799,371.631134 293.003693,370.078003 
	C292.950439,364.597992 292.991821,359.117065 292.982635,353.636505 
	C292.979767,351.913666 293.039459,350.156586 295.085175,349.621216 
	C297.233673,349.058990 298.518616,350.333588 299.399048,352.110321 
	C301.656738,356.666443 303.896667,361.231354 306.143707,365.792755 
	C306.587158,365.746155 307.030579,365.699554 307.473999,365.652924 
	C307.473999,361.687103 307.407593,357.719604 307.505188,353.756195 
	C307.546844,352.063599 307.030670,349.540222 309.751129,349.667938 
	C311.935730,349.770508 311.755493,351.998138 311.684204,353.631104 
	C311.402924,360.073517 312.420135,366.556549 310.885803,373.277863 
z"/>
<path fill="#FF6161" opacity="1.000000" stroke="none" 
	d="
M236.951828,350.880615 
	C242.106628,355.921082 243.527924,363.058319 240.828369,368.890686 
	C238.249954,374.461304 231.928558,376.698730 226.553619,373.943115 
	C220.940674,371.065491 218.757751,362.225708 221.967560,355.371887 
	C224.652557,349.638672 229.866287,347.972565 236.951828,350.880615 
z"/>
<path fill="#FF6262" opacity="1.000000" stroke="none" 
	d="
M260.978546,360.919434 
	C261.981110,357.872894 262.942749,355.226837 263.783508,352.542908 
	C264.265869,351.002991 264.996979,349.698242 266.701355,349.559601 
	C268.727997,349.394745 269.554810,350.856049 270.110229,352.544312 
	C272.128082,358.677490 274.154480,364.807922 276.207428,370.929413 
	C276.644958,372.234070 277.219513,373.659271 275.559509,374.352631 
	C273.532837,375.199066 272.801147,373.404724 272.505035,372.064087 
	C271.826233,368.990814 270.354614,367.740997 267.032898,367.845062 
	C263.997406,367.940186 261.935913,368.344635 261.455902,371.822510 
	C261.261719,373.229645 260.473419,375.035706 258.563141,374.462250 
	C256.570740,373.864227 257.238861,372.199982 257.752197,370.726562 
	C258.841064,367.601013 259.847015,364.446625 260.978546,360.919434 
z"/>
<path fill="#FF7272" opacity="1.000000" stroke="none" 
	d="
M201.535690,371.025146 
	C203.415405,371.114258 205.287430,370.800049 205.243301,373.003754 
	C205.208344,374.750153 203.638489,374.861694 202.272644,374.867615 
	C189.233200,374.924072 190.200592,375.870392 190.261871,364.360291 
	C190.282181,360.545135 190.269638,356.729858 190.275452,352.914642 
	C190.277847,351.334686 190.522339,349.604675 192.392853,349.532623 
	C194.601807,349.447479 194.858521,351.305786 194.861526,353.065704 
	C194.868301,357.046814 195.268448,361.078979 194.770386,364.996521 
	C194.093811,370.318481 196.313889,371.833466 201.535690,371.025146 
z"/>
<path fill="#FF7272" opacity="1.000000" stroke="none" 
	d="
M273.055298,197.878265 
	C274.367035,196.178986 273.137695,191.558685 277.303802,194.122589 
	C278.869293,195.086029 278.989105,196.994308 277.754333,198.460709 
	C276.202942,200.303162 274.490723,200.550400 273.055298,197.878265 
z"/>
<path fill="#FF7272" opacity="1.000000" stroke="none" 
	d="
M276.777771,181.892532 
	C275.653717,183.530640 276.352142,186.899445 273.212494,185.601364 
	C271.679260,184.967438 270.679718,183.169632 271.913116,181.511826 
	C273.362762,179.563416 275.202301,178.756989 276.777771,181.892532 
z"/>
<path fill="#FF8383" opacity="1.000000" stroke="none" 
	d="
M212.678101,262.095032 
	C213.260010,262.329956 213.506668,262.639587 214.017441,263.096924 
	C212.913620,265.869476 207.541107,264.868195 208.383377,269.703827 
	C208.423569,269.934570 205.761749,270.386078 204.750961,269.529663 
	C203.930511,268.834503 204.642303,267.684845 205.451828,267.084717 
	C207.717957,265.404724 210.041779,263.802582 212.678101,262.095032 
z"/>
<path fill="#FF9999" opacity="1.000000" stroke="none" 
	d="
M210.760132,268.086304 
	C210.988083,268.289459 210.925522,268.492218 210.712860,268.979431 
	C209.941101,268.917908 209.735840,268.539062 210.760132,268.086304 
z"/>
<path fill="#FFF1F1" opacity="1.000000" stroke="none" 
	d="
M183.704498,311.538757 
	C185.259995,306.605652 186.695511,302.043610 188.327682,296.856567 
	C191.021896,301.866913 191.872406,306.857452 193.552460,311.536407 
	C193.744141,312.070282 193.720551,312.951660 193.398560,313.350098 
	C192.350189,314.647400 184.756104,313.464386 183.704498,311.538757 
z"/>
<path fill="#FFFBFB" opacity="1.000000" stroke="none" 
	d="
M320.690948,293.309540 
	C327.261169,294.567261 329.417023,297.682404 328.053223,303.354401 
	C327.068909,307.448090 321.458282,309.739288 316.521088,308.064606 
	C316.218811,307.962097 315.696808,307.934998 315.642029,307.759125 
	C314.341187,303.584076 314.808868,299.266449 315.257050,295.091949 
	C315.530792,292.542511 318.424225,293.518524 320.690948,293.309540 
z"/>
<path fill="#FFFBFB" opacity="1.000000" stroke="none" 
	d="
M259.207825,307.779907 
	C249.995697,308.518951 249.831894,308.513458 250.092316,300.731384 
	C250.174927,298.262543 248.134155,294.410858 252.211685,293.555786 
	C255.876099,292.787292 260.284088,292.493439 262.357086,296.756683 
	C264.015106,300.166443 264.112122,303.882965 260.867950,306.819916 
	C260.502106,307.151093 260.036621,307.372131 259.207825,307.779907 
z"/>
<path fill="#FFEAEA" opacity="1.000000" stroke="none" 
	d="
M229.641052,209.644440 
	C227.464340,210.045792 225.868164,211.586014 223.807709,209.907425 
	C222.690079,208.996918 219.792007,210.494049 219.645081,208.345001 
	C219.467209,205.743561 222.131546,207.144104 223.512253,206.779587 
	C225.080307,206.365631 225.005447,205.258606 225.073578,204.094498 
	C225.170319,202.441528 224.783783,201.291534 222.894608,200.797607 
	C218.981323,199.774536 217.591934,196.727386 219.578094,193.620300 
	C221.036301,191.339111 224.382767,190.365402 227.390350,191.030502 
	C228.250885,191.220810 229.143234,191.746231 230.131104,191.824921 
	C231.068069,191.899551 232.387329,191.633133 232.491547,192.975616 
	C232.619156,194.619659 231.192825,194.625778 230.039825,194.683548 
	C228.656281,194.752869 227.356659,194.771118 227.224609,196.673798 
	C227.088425,198.635986 227.814987,199.709946 229.798264,200.244247 
	C232.229614,200.899261 233.777893,202.435776 233.825348,205.235504 
	C233.871124,207.936707 232.463440,209.158920 229.641052,209.644440 
z"/>
<path fill="#FFFBFB" opacity="1.000000" stroke="none" 
	d="
M228.000549,353.734009 
	C233.785797,352.261993 235.823532,353.325226 237.347443,358.192169 
	C239.090515,363.759064 237.258560,369.742126 233.282166,371.175995 
	C229.566879,372.515656 226.990845,370.793793 225.803986,367.467255 
	C224.128784,362.771973 223.980255,358.048096 228.000549,353.734009 
z"/>
<path fill="#FFEAEA" opacity="1.000000" stroke="none" 
	d="
M264.320221,362.431732 
	C265.116364,360.111053 265.781433,358.165253 266.827301,355.105255 
	C268.088043,358.992523 270.568939,361.453064 268.767853,364.644745 
	C268.572723,364.990570 264.532227,366.516449 264.320221,362.431732 
z"/>
<path fill="#FF8383" opacity="1.000000" stroke="none" 
	d="
M228.159012,206.725555 
	C226.781845,205.341843 226.652863,203.879150 227.713760,202.711166 
	C228.257736,202.112289 229.306137,202.745926 229.698914,203.456543 
	C230.518494,204.939255 230.440430,206.243057 228.159012,206.725555 
z"/>
<path fill="#FF8383" opacity="1.000000" stroke="none" 
	d="
M224.741776,197.632629 
	C223.171082,198.169067 222.184067,197.815048 222.289474,196.259354 
	C222.352509,195.329300 223.073334,194.796875 223.986801,194.974472 
	C225.343353,195.238235 225.045532,196.351379 224.741776,197.632629 
z"/>
</svg>